<svg width="147" height="21" viewBox="0 0 147 21" fill="none" xmlns="http://www.w3.org/2000/svg">
<path d="M9.79904 20.736C7.92171 20.736 6.32171 20.384 4.99904 19.68C3.67637 18.976 2.67371 18.0053 1.99104 16.768C1.30837 15.5093 0.967041 14.0693 0.967041 12.448C0.967041 11.6587 1.04171 10.8907 1.19104 10.144C1.55371 8.18133 2.33237 6.432 3.52704 4.896C4.72171 3.36 6.19371 2.16533 7.94304 1.312C9.71371 0.437333 11.5804 0 13.543 0C14.4604 0 15.367 0.096 16.263 0.288C17.1804 0.458667 17.895 0.672 18.407 0.927999C18.535 1.01333 18.6097 1.09867 18.631 1.184C18.6737 1.26933 18.6844 1.42933 18.663 1.664L18.151 5.952C18.1297 6.016 18.0657 6.048 17.959 6.048C17.8737 6.048 17.8204 6.016 17.799 5.952C17.415 4.33067 16.743 3.072 15.783 2.176C14.8444 1.25867 13.6497 0.800001 12.199 0.800001C10.279 0.800001 8.65771 1.536 7.33504 3.008C6.03371 4.45867 5.19104 6.44267 4.80704 8.96C4.65771 9.87733 4.58304 10.8267 4.58304 11.808C4.58304 14.368 5.13771 16.384 6.24704 17.856C7.35637 19.328 8.89238 20.064 10.855 20.064C11.9004 20.064 12.6577 19.7973 13.127 19.264C13.5964 18.7307 13.9164 17.7493 14.087 16.32C14.1937 15.5307 14.247 14.9653 14.247 14.624C14.247 14.112 14.151 13.7387 13.959 13.504C13.7884 13.2693 13.5004 13.1093 13.095 13.024C12.711 12.9387 12.1137 12.896 11.303 12.896C11.2604 12.896 11.2177 12.8747 11.175 12.832C11.1537 12.768 11.143 12.704 11.143 12.64C11.143 12.576 11.1537 12.5227 11.175 12.48C11.2177 12.416 11.2604 12.384 11.303 12.384C12.903 12.4907 14.215 12.544 15.239 12.544C16.2417 12.544 17.287 12.512 18.375 12.448C18.439 12.448 18.471 12.5227 18.471 12.672C18.4924 12.8213 18.4604 12.896 18.375 12.896C18.0977 12.8747 17.895 12.9493 17.767 13.12C17.639 13.2693 17.5217 13.6533 17.415 14.272C17.3084 14.8907 17.191 15.68 17.063 16.64C16.935 17.472 16.8604 18.112 16.839 18.56C16.8177 19.008 16.7857 19.3067 16.743 19.456C16.7217 19.584 16.6897 19.6693 16.647 19.712C16.6044 19.7547 16.519 19.7973 16.391 19.84C13.8524 20.4373 11.655 20.736 9.79904 20.736Z" fill="#030304"/>
<path d="M28.993 7.712C29.5477 7.712 30.0704 7.91467 30.561 8.32C31.073 8.72533 31.2864 9.184 31.201 9.696C31.1584 10.016 31.009 10.3147 30.753 10.592C30.497 10.8693 30.177 11.008 29.793 11.008C29.409 11.008 28.993 10.8267 28.545 10.464C28.3957 10.3573 28.2464 10.2613 28.097 10.176C27.9477 10.0907 27.7984 10.048 27.649 10.048C27.2864 10.048 26.8384 10.6133 26.305 11.744C25.7717 12.8747 25.2597 14.2293 24.769 15.808C24.2997 17.3653 23.9584 18.7413 23.745 19.936V19.968C23.7024 20.16 23.5317 20.3093 23.233 20.416C22.9344 20.544 22.5077 20.608 21.953 20.608C21.249 20.608 20.897 20.5227 20.897 20.352C20.9184 20.2027 20.9824 19.8827 21.089 19.392C21.217 18.9013 21.3237 18.432 21.409 17.984L22.721 10.848C22.7637 10.5067 22.785 10.2827 22.785 10.176C22.785 9.57867 22.593 9.28 22.209 9.28C21.7824 9.28 21.1744 9.70667 20.385 10.56C20.3637 10.5813 20.3317 10.592 20.289 10.592C20.2037 10.592 20.1397 10.56 20.097 10.496C20.0544 10.4107 20.065 10.336 20.129 10.272C20.897 9.376 21.5797 8.72533 22.177 8.32C22.7957 7.91467 23.4144 7.712 24.033 7.712C24.5664 7.712 24.9504 7.86133 25.185 8.16C25.4197 8.43733 25.537 8.85333 25.537 9.408C25.537 9.728 25.505 10.08 25.441 10.464L24.801 13.984C26.0597 9.80267 27.457 7.712 28.993 7.712Z" fill="#030304"/>
<path d="M38.9728 7.584C39.7835 7.584 40.4128 7.72267 40.8608 8C41.3088 8.27733 41.5328 8.66133 41.5328 9.152C41.5328 10.112 40.8181 11.0187 39.3888 11.872C37.9808 12.704 36.2741 13.312 34.2688 13.696C34.2048 14.1653 34.1728 14.624 34.1728 15.072C34.1728 16.352 34.4395 17.3867 34.9728 18.176C35.5061 18.944 36.2955 19.328 37.3408 19.328C37.7888 19.328 38.2688 19.2533 38.7808 19.104C39.3141 18.9333 39.7941 18.6773 40.2208 18.336H40.2528C40.3168 18.336 40.3701 18.368 40.4128 18.432C40.4768 18.496 40.4875 18.5493 40.4448 18.592C39.6768 19.3387 38.8661 19.8827 38.0128 20.224C37.1595 20.5653 36.3061 20.736 35.4528 20.736C33.9808 20.736 32.8715 20.288 32.1248 19.392C31.3995 18.496 31.0368 17.3653 31.0368 16C31.0368 15.5307 31.0901 15.008 31.1968 14.432C31.4101 13.28 31.8795 12.1813 32.6048 11.136C33.3515 10.0907 34.2795 9.23733 35.3888 8.576C36.4981 7.91467 37.6928 7.584 38.9728 7.584ZM38.3008 9.984C38.3221 9.89867 38.3328 9.77067 38.3328 9.6C38.3328 9.23733 38.2368 8.96 38.0448 8.768C37.8741 8.55467 37.6288 8.448 37.3088 8.448C36.6261 8.448 36.0181 8.88533 35.4848 9.76C34.9728 10.6347 34.5888 11.776 34.3328 13.184C36.7861 12.544 38.1088 11.4773 38.3008 9.984Z" fill="#030304"/>
<path d="M50.4103 7.584C51.221 7.584 51.8503 7.72267 52.2983 8C52.7463 8.27733 52.9703 8.66133 52.9703 9.152C52.9703 10.112 52.2556 11.0187 50.8263 11.872C49.4183 12.704 47.7116 13.312 45.7063 13.696C45.6423 14.1653 45.6103 14.624 45.6103 15.072C45.6103 16.352 45.877 17.3867 46.4103 18.176C46.9436 18.944 47.733 19.328 48.7783 19.328C49.2263 19.328 49.7063 19.2533 50.2183 19.104C50.7516 18.9333 51.2316 18.6773 51.6583 18.336H51.6903C51.7543 18.336 51.8076 18.368 51.8503 18.432C51.9143 18.496 51.925 18.5493 51.8823 18.592C51.1143 19.3387 50.3036 19.8827 49.4503 20.224C48.597 20.5653 47.7436 20.736 46.8903 20.736C45.4183 20.736 44.309 20.288 43.5623 19.392C42.837 18.496 42.4743 17.3653 42.4743 16C42.4743 15.5307 42.5276 15.008 42.6343 14.432C42.8476 13.28 43.317 12.1813 44.0423 11.136C44.789 10.0907 45.717 9.23733 46.8263 8.576C47.9356 7.91467 49.1303 7.584 50.4103 7.584ZM49.7383 9.984C49.7596 9.89867 49.7703 9.77067 49.7703 9.6C49.7703 9.23733 49.6743 8.96 49.4823 8.768C49.3116 8.55467 49.0663 8.448 48.7463 8.448C48.0636 8.448 47.4556 8.88533 46.9223 9.76C46.4103 10.6347 46.0263 11.776 45.7703 13.184C48.2236 12.544 49.5463 11.4773 49.7383 9.984Z" fill="#030304"/>
<path d="M67.4798 17.888C67.5225 17.8453 67.5545 17.824 67.5758 17.824C67.6398 17.824 67.6931 17.8667 67.7358 17.952C67.7785 18.016 67.7785 18.08 67.7358 18.144C67.0105 18.9973 66.3598 19.6267 65.7838 20.032C65.2291 20.4373 64.6531 20.64 64.0558 20.64C63.0318 20.64 62.5198 20.0427 62.5198 18.848C62.5198 18.528 62.5731 18.08 62.6798 17.504L63.6078 12.416C63.7145 11.8187 63.7678 11.3387 63.7678 10.976C63.7678 9.93067 63.4265 9.408 62.7438 9.408C62.1465 9.408 61.5278 9.80267 60.8878 10.592C60.2478 11.36 59.6398 12.4907 59.0638 13.984C58.5091 15.4773 58.0398 17.2693 57.6558 19.36L57.5598 19.968C57.4531 20.3947 56.8558 20.608 55.7678 20.608C55.0638 20.608 54.7118 20.5227 54.7118 20.352L54.8398 19.68C55.0531 18.6773 55.1705 18.112 55.1918 17.984L56.5038 10.848C56.5465 10.656 56.5678 10.4213 56.5678 10.144C56.5678 9.568 56.3865 9.28 56.0238 9.28C55.5758 9.28 54.9571 9.70667 54.1678 10.56C54.1465 10.5813 54.1145 10.592 54.0718 10.592C54.0078 10.592 53.9545 10.56 53.9118 10.496C53.8691 10.4107 53.8691 10.336 53.9118 10.272C54.6798 9.376 55.3625 8.72533 55.9598 8.32C56.5785 7.91467 57.1971 7.712 57.8158 7.712C58.8185 7.712 59.3198 8.27733 59.3198 9.408C59.3198 9.728 59.2878 10.08 59.2238 10.464L58.7118 13.376C59.4585 11.52 60.3118 10.0907 61.2718 9.088C62.2531 8.08533 63.2878 7.584 64.3758 7.584C65.8478 7.584 66.5838 8.46933 66.5838 10.24C66.5838 10.6453 66.5305 11.168 66.4238 11.808L65.3678 17.504C65.3038 17.824 65.2718 18.08 65.2718 18.272C65.2718 18.7627 65.4425 19.008 65.7838 19.008C65.9971 19.008 66.2318 18.912 66.4878 18.72C66.7651 18.528 67.0958 18.2507 67.4798 17.888Z" fill="#030304"/>
<path d="M84.9073 0.352001C85.078 0.352001 85.142 0.448001 85.0993 0.639999L84.4273 4.928C84.406 4.992 84.3526 5.024 84.2673 5.024C84.2246 5.024 84.1713 5.01333 84.1073 4.992C84.0646 4.94933 84.0433 4.91733 84.0433 4.896C83.9366 3.70133 83.51 2.76267 82.7633 2.08C82.0166 1.376 81.0566 1.024 79.8833 1.024H79.3393C78.7206 1.024 78.2726 1.07733 77.9953 1.184C77.718 1.26933 77.5153 1.44 77.3873 1.696C77.2806 1.952 77.1633 2.37867 77.0353 2.976L75.8193 9.888H78.7633C79.7233 9.888 80.47 9.696 81.0033 9.312C81.5366 8.928 81.8993 8.29867 82.0913 7.424C82.0913 7.36 82.1553 7.328 82.2833 7.328C82.326 7.328 82.3686 7.34933 82.4113 7.392C82.4753 7.41333 82.4966 7.44533 82.4753 7.488C82.39 8.08533 82.262 8.74667 82.0913 9.472C82.0913 9.55733 82.038 9.84533 81.9313 10.336L81.8033 11.168C81.718 11.7867 81.59 12.5973 81.4193 13.6C81.398 13.6853 81.3233 13.728 81.1953 13.728C81.0673 13.7067 81.014 13.6533 81.0353 13.568C81.078 13.2693 81.0993 13.056 81.0993 12.928C81.0993 12.224 80.8753 11.6907 80.4273 11.328C79.9793 10.9653 79.35 10.784 78.5393 10.784H75.6593L74.4433 17.632C74.3793 17.9733 74.3473 18.2613 74.3473 18.496C74.3473 19.072 74.5393 19.4667 74.9233 19.68C75.3286 19.872 76.0646 19.968 77.1313 19.968C77.174 19.968 77.1953 20.032 77.1953 20.16C77.1953 20.288 77.174 20.352 77.1313 20.352C76.6833 20.352 76.2993 20.3413 75.9793 20.32L72.3633 20.288L70.3153 20.32C69.974 20.3413 69.494 20.352 68.8753 20.352C68.8326 20.352 68.8113 20.288 68.8113 20.16C68.8113 20.032 68.8326 19.968 68.8753 19.968C69.4726 19.968 69.9206 19.9147 70.2193 19.808C70.518 19.7013 70.742 19.4987 70.8913 19.2C71.0406 18.88 71.1686 18.4 71.2753 17.76L73.8993 2.944C73.9846 2.38933 74.0273 2.03733 74.0273 1.888C74.0273 1.44 73.8993 1.14133 73.6433 0.992001C73.3873 0.821334 72.95 0.736 72.3313 0.736C72.2673 0.736 72.2353 0.672 72.2353 0.544001C72.2353 0.416001 72.2673 0.352001 72.3313 0.352001H84.9073Z" fill="#030304"/>
<path d="M98.1985 17.792C98.2199 17.7707 98.2519 17.76 98.2945 17.76C98.3585 17.76 98.4119 17.8027 98.4545 17.888C98.4972 17.952 98.4972 18.016 98.4545 18.08C97.6865 18.976 96.9932 19.6267 96.3745 20.032C95.7772 20.4373 95.1692 20.64 94.5505 20.64C93.5479 20.64 93.0465 20.0747 93.0465 18.944C93.0465 18.624 93.0785 18.272 93.1425 17.888L93.6545 14.976C92.9079 16.832 92.0439 18.2613 91.0625 19.264C90.1025 20.2667 89.0785 20.768 87.9905 20.768C86.5185 20.768 85.7825 19.8933 85.7825 18.144C85.7825 17.5893 85.8359 17.056 85.9425 16.544L87.0625 10.848C87.1265 10.528 87.1585 10.272 87.1585 10.08C87.1585 9.58933 86.9879 9.344 86.6465 9.344C86.4332 9.344 86.1985 9.44 85.9425 9.632C85.7079 9.80267 85.3879 10.08 84.9825 10.464C84.9399 10.5067 84.8972 10.528 84.8545 10.528C84.7905 10.528 84.7372 10.496 84.6945 10.432C84.6519 10.3467 84.6625 10.272 84.7265 10.208C85.4519 9.35467 86.0812 8.72533 86.6145 8.32C87.1692 7.91467 87.7452 7.712 88.3425 7.712C89.3879 7.712 89.9105 8.32 89.9105 9.536C89.9105 9.83467 89.8572 10.272 89.7505 10.848L88.7585 15.936C88.6519 16.4053 88.5985 16.8853 88.5985 17.376C88.5985 18.4213 88.9399 18.944 89.6225 18.944C90.2199 18.944 90.8385 18.56 91.4785 17.792C92.1185 17.0027 92.7159 15.8613 93.2705 14.368C93.8465 12.8747 94.3265 11.0827 94.7105 8.992L94.8065 8.384C94.9132 7.95733 95.5105 7.744 96.5985 7.744C96.9612 7.744 97.2279 7.776 97.3985 7.84C97.5692 7.88267 97.6545 7.936 97.6545 8L97.5265 8.672C97.3132 9.67467 97.1959 10.24 97.1745 10.368L95.8625 17.504C95.8199 17.696 95.7985 17.9307 95.7985 18.208C95.7985 18.784 95.9799 19.072 96.3425 19.072C96.7905 19.072 97.4092 18.6453 98.1985 17.792Z" fill="#030304"/>
<path d="M108.873 8C109.023 8 109.097 8.096 109.097 8.288C109.097 8.45867 108.969 8.71467 108.713 9.056C108.479 9.39733 108.255 9.568 108.041 9.568C107.977 9.568 107.625 9.51467 106.985 9.408C106.367 9.30133 105.663 9.22667 104.873 9.184L103.529 16.8C103.487 17.1413 103.465 17.376 103.465 17.504C103.465 18.016 103.593 18.3893 103.849 18.624C104.127 18.8587 104.543 18.976 105.097 18.976C105.908 18.976 106.804 18.5813 107.785 17.792H107.817C107.903 17.792 107.977 17.824 108.041 17.888C108.105 17.952 108.105 18.016 108.041 18.08C107.06 19.0187 106.185 19.7013 105.417 20.128C104.671 20.5333 103.924 20.736 103.177 20.736C101.449 20.736 100.585 19.9573 100.585 18.4C100.585 18.08 100.617 17.728 100.681 17.344L101.929 10.56C101.993 10.1973 102.025 9.89867 102.025 9.664C102.025 9.344 101.94 9.13067 101.769 9.024C101.599 8.91733 101.289 8.864 100.841 8.864C100.777 8.864 100.745 8.78933 100.745 8.64C100.745 8.448 100.777 8.352 100.841 8.352C102.548 8.352 103.903 7.41333 104.905 5.536C104.948 5.472 105.023 5.44 105.129 5.44C105.236 5.44 105.332 5.46133 105.417 5.504C105.503 5.54667 105.535 5.58933 105.513 5.632L105.033 8.256C105.631 8.23467 106.143 8.21333 106.569 8.192C106.996 8.14933 107.359 8.11733 107.657 8.096C108.212 8.032 108.617 8 108.873 8Z" fill="#030304"/>
<path d="M123.042 17.792C123.064 17.7707 123.096 17.76 123.138 17.76C123.202 17.76 123.256 17.8027 123.298 17.888C123.341 17.952 123.341 18.016 123.298 18.08C122.53 18.976 121.837 19.6267 121.218 20.032C120.621 20.4373 120.013 20.64 119.394 20.64C118.392 20.64 117.89 20.0747 117.89 18.944C117.89 18.624 117.922 18.272 117.986 17.888L118.498 14.976C117.752 16.832 116.888 18.2613 115.906 19.264C114.946 20.2667 113.922 20.768 112.834 20.768C111.362 20.768 110.626 19.8933 110.626 18.144C110.626 17.5893 110.68 17.056 110.786 16.544L111.906 10.848C111.97 10.528 112.002 10.272 112.002 10.08C112.002 9.58933 111.832 9.344 111.49 9.344C111.277 9.344 111.042 9.44 110.786 9.632C110.552 9.80267 110.232 10.08 109.826 10.464C109.784 10.5067 109.741 10.528 109.698 10.528C109.634 10.528 109.581 10.496 109.538 10.432C109.496 10.3467 109.506 10.272 109.57 10.208C110.296 9.35467 110.925 8.72533 111.458 8.32C112.013 7.91467 112.589 7.712 113.186 7.712C114.232 7.712 114.754 8.32 114.754 9.536C114.754 9.83467 114.701 10.272 114.594 10.848L113.602 15.936C113.496 16.4053 113.442 16.8853 113.442 17.376C113.442 18.4213 113.784 18.944 114.466 18.944C115.064 18.944 115.682 18.56 116.322 17.792C116.962 17.0027 117.56 15.8613 118.114 14.368C118.69 12.8747 119.17 11.0827 119.554 8.992L119.65 8.384C119.757 7.95733 120.354 7.744 121.442 7.744C121.805 7.744 122.072 7.776 122.242 7.84C122.413 7.88267 122.498 7.936 122.498 8L122.37 8.672C122.157 9.67467 122.04 10.24 122.018 10.368L120.706 17.504C120.664 17.696 120.642 17.9307 120.642 18.208C120.642 18.784 120.824 19.072 121.186 19.072C121.634 19.072 122.253 18.6453 123.042 17.792Z" fill="#030304"/>
<path d="M133.493 7.712C134.048 7.712 134.57 7.91467 135.061 8.32C135.573 8.72533 135.786 9.184 135.701 9.696C135.658 10.016 135.509 10.3147 135.253 10.592C134.997 10.8693 134.677 11.008 134.293 11.008C133.909 11.008 133.493 10.8267 133.045 10.464C132.896 10.3573 132.746 10.2613 132.597 10.176C132.448 10.0907 132.298 10.048 132.149 10.048C131.786 10.048 131.338 10.6133 130.805 11.744C130.272 12.8747 129.76 14.2293 129.269 15.808C128.8 17.3653 128.458 18.7413 128.245 19.936V19.968C128.202 20.16 128.032 20.3093 127.733 20.416C127.434 20.544 127.008 20.608 126.453 20.608C125.749 20.608 125.397 20.5227 125.397 20.352C125.418 20.2027 125.482 19.8827 125.589 19.392C125.717 18.9013 125.824 18.432 125.909 17.984L127.221 10.848C127.264 10.5067 127.285 10.2827 127.285 10.176C127.285 9.57867 127.093 9.28 126.709 9.28C126.282 9.28 125.674 9.70667 124.885 10.56C124.864 10.5813 124.832 10.592 124.789 10.592C124.704 10.592 124.64 10.56 124.597 10.496C124.554 10.4107 124.565 10.336 124.629 10.272C125.397 9.376 126.08 8.72533 126.677 8.32C127.296 7.91467 127.914 7.712 128.533 7.712C129.066 7.712 129.45 7.86133 129.685 8.16C129.92 8.43733 130.037 8.85333 130.037 9.408C130.037 9.728 130.005 10.08 129.941 10.464L129.301 13.984C130.56 9.80267 131.957 7.712 133.493 7.712Z" fill="#030304"/>
<path d="M143.473 7.584C144.283 7.584 144.913 7.72267 145.361 8C145.809 8.27733 146.033 8.66133 146.033 9.152C146.033 10.112 145.318 11.0187 143.889 11.872C142.481 12.704 140.774 13.312 138.769 13.696C138.705 14.1653 138.673 14.624 138.673 15.072C138.673 16.352 138.939 17.3867 139.473 18.176C140.006 18.944 140.795 19.328 141.841 19.328C142.289 19.328 142.769 19.2533 143.281 19.104C143.814 18.9333 144.294 18.6773 144.721 18.336H144.753C144.817 18.336 144.87 18.368 144.913 18.432C144.977 18.496 144.987 18.5493 144.945 18.592C144.177 19.3387 143.366 19.8827 142.513 20.224C141.659 20.5653 140.806 20.736 139.953 20.736C138.481 20.736 137.371 20.288 136.625 19.392C135.899 18.496 135.537 17.3653 135.537 16C135.537 15.5307 135.59 15.008 135.697 14.432C135.91 13.28 136.379 12.1813 137.105 11.136C137.851 10.0907 138.779 9.23733 139.889 8.576C140.998 7.91467 142.193 7.584 143.473 7.584ZM142.801 9.984C142.822 9.89867 142.833 9.77067 142.833 9.6C142.833 9.23733 142.737 8.96 142.545 8.768C142.374 8.55467 142.129 8.448 141.809 8.448C141.126 8.448 140.518 8.88533 139.985 9.76C139.473 10.6347 139.089 11.776 138.833 13.184C141.286 12.544 142.609 11.4773 142.801 9.984Z" fill="#030304"/>
</svg>
