<svg width="182" height="192" viewBox="0 0 182 192" fill="none" xmlns="http://www.w3.org/2000/svg">
<path d="M93.4 191.68C79.1067 191.68 64.8133 188.16 50.52 181.12C36.2267 174.08 24.28 163.52 14.68 149.44C5.29333 135.36 0.599998 118.293 0.599998 98.24C0.599998 79.4667 5.29333 62.6133 14.68 47.68C24.0667 32.7467 36.5467 21.12 52.12 12.8C67.9067 4.48 84.6533 0.32 102.36 0.32C118.147 0.32 132.013 3.62667 143.96 10.24C156.12 16.64 165.4 25.3867 171.8 36.48C178.2 47.5733 181.4 59.7333 181.4 72.96C181.4 86.1867 177.987 98.4533 171.16 109.76C164.333 121.067 155.053 130.133 143.32 136.96C131.587 143.573 118.573 146.88 104.28 146.88C91.48 146.88 80.8133 144.533 72.28 139.84C63.96 134.933 57.7733 128.747 53.72 121.28C49.6667 113.6 47.64 105.493 47.64 96.96C47.64 86.08 50.3067 76.5867 55.64 68.48C60.9733 60.16 67.8 53.8667 76.12 49.6C84.6533 45.12 93.2933 42.88 102.04 42.88C109.507 42.88 116.227 44.3733 122.2 47.36C128.173 50.1333 131.373 53.6533 131.8 57.92C131.8 60.0533 130.947 61.9733 129.24 63.68C127.533 65.3867 125.613 66.24 123.48 66.24C119.853 66.24 116.227 63.68 112.6 58.56C110.04 54.9333 107.48 52.2667 104.92 50.56C102.36 48.64 98.7333 47.68 94.04 47.68C75.0533 47.68 65.56 61.5467 65.56 89.28C65.56 104 69.2933 115.947 76.76 125.12C84.2267 134.08 96.3867 138.56 113.24 138.56C129.453 138.56 143.213 133.867 154.52 124.48C165.827 114.88 171.48 100.693 171.48 81.92C171.48 68.48 167.96 56.1067 160.92 44.8C154.093 33.28 144.6 24.2133 132.44 17.6C120.493 10.9867 107.267 7.67999 92.76 7.67999C76.12 7.67999 61.72 11.4133 49.56 18.88C37.6133 26.1333 28.5467 36.16 22.36 48.96C16.1733 61.5467 13.08 75.6267 13.08 91.2C13.08 110.827 17.7733 127.573 27.16 141.44C36.5467 155.093 48.0667 165.227 61.72 171.84C75.3733 178.667 88.6 182.08 101.4 182.08C114.413 182.08 125.507 181.12 134.68 179.2C143.853 177.493 154.2 173.653 165.72 167.68C166.147 167.467 166.573 167.68 167 168.32C167.427 168.96 167.533 169.493 167.32 169.92C156.013 178.453 144.493 184.213 132.76 187.2C121.24 190.187 108.12 191.68 93.4 191.68Z" fill="#E7E4E5"/>
</svg>
